<svg width="50" height="44" viewBox="0 0 50 44" fill="none" xmlns="http://www.w3.org/2000/svg">
<g clip-path="url(#clip0_72_998)">
<path d="M43.457 0.740723H6.54297C3.39538 0.740723 0.84375 2.98056 0.84375 5.74355V38.1436C0.84375 40.9066 3.39538 43.1464 6.54297 43.1464H43.457C46.6046 43.1464 49.1562 40.9066 49.1562 38.1436V5.74355C49.1562 2.98056 46.6046 0.740723 43.457 0.740723Z" fill="url(#paint0_linear_72_998)"/>
<path d="M20.5586 20.6697C20.5586 20.6697 24.6602 20.4023 24.6602 16.1812C24.6602 11.9602 21.3047 9.89941 17.0547 9.89941H3.07031V33.4905H17.0547C17.0547 33.4905 25.5898 33.7271 25.5898 26.5264C25.5898 26.5264 25.9648 20.6697 20.5586 20.6697ZM9.23047 14.093H17.043C17.043 14.093 18.9453 14.093 18.9453 16.5481C18.9453 19.0033 17.8281 19.3599 16.5586 19.3599H9.23437L9.23047 14.093ZM16.6914 29.2969H9.23437V22.9945H17.0469C17.0469 22.9945 19.8789 22.9603 19.8789 26.2349C19.8867 28.9609 17.8164 29.2695 16.6953 29.2969H16.6914ZM36.9766 15.9035C26.6406 15.9035 26.6523 24.9662 26.6523 24.9662C26.6523 24.9662 25.9414 33.9843 36.9766 33.9843C36.9766 33.9843 46.1719 34.4438 46.1719 27.7128H41.4453C41.4453 27.7128 41.6016 30.2502 37.1484 30.2502C37.1484 30.2502 32.418 30.5279 32.418 26.1355H46.3438C46.3438 26.1355 47.8555 15.9035 36.9766 15.9035ZM41.1797 22.9945H32.3516C32.3516 22.9945 32.9297 19.3599 37.082 19.3599C41.2344 19.3599 41.1797 22.9945 41.1797 22.9945ZM31.1953 11.2916H42.2812V14.1959H31.1953V11.2916Z" fill="white"/>
</g>
<defs>
<linearGradient id="paint0_linear_72_998" x1="25" y1="0.740723" x2="25" y2="43.1499" gradientUnits="userSpaceOnUse">
<stop stop-color="#005CFF"/>
<stop offset="1" stop-color="#0047AD"/>
</linearGradient>
<clipPath id="clip0_72_998">
<rect width="50" height="43.8904" fill="white"/>
</clipPath>
</defs>
</svg>
