<svg width="50" height="44" viewBox="0 0 50 44" fill="none" xmlns="http://www.w3.org/2000/svg">
<g clip-path="url(#clip0_72_994)">
<path d="M50 21.9452C50 9.82529 38.807 0 25 0C11.193 0 0 9.82529 0 21.9452C0 32.8986 9.14219 41.9776 21.0938 43.6239V28.2888H14.7461V21.9452H21.0938V17.1104C21.0938 11.6104 24.8262 8.57235 30.5367 8.57235C33.2719 8.57235 36.1328 9.00097 36.1328 9.00097V14.4016H32.9805C29.8748 14.4016 28.9062 16.0932 28.9062 17.8288V21.9452H35.8398L34.7314 28.2888H28.9062V43.6239C40.8578 41.9776 50 32.8988 50 21.9452Z" fill="#1877F2"/>
<path d="M34.7314 28.2887L35.8398 21.9451H28.9062V17.8287C28.9062 16.093 29.8748 14.4015 32.9805 14.4015H36.1328V9.00088C36.1328 9.00088 33.2719 8.57227 30.5365 8.57227C24.8262 8.57227 21.0938 11.6103 21.0938 17.1103V21.9451H14.7461V28.2887H21.0938V43.6238C22.386 43.8015 23.692 43.8907 25 43.8904C26.308 43.8907 27.614 43.8016 28.9062 43.6238V28.2887H34.7314Z" fill="white"/>
</g>
<defs>
<clipPath id="clip0_72_994">
<rect width="50" height="43.8904" fill="white"/>
</clipPath>
</defs>
</svg>
