<svg width="50" height="44" viewBox="0 0 50 44" fill="none" xmlns="http://www.w3.org/2000/svg">
<g clip-path="url(#clip0_72_997)">
<path d="M38.2812 0H11.7188C5.24666 0 0 4.60557 0 10.2868V33.6036C0 39.2849 5.24666 43.8904 11.7188 43.8904H38.2812C44.7533 43.8904 50 39.2849 50 33.6036V10.2868C50 4.60557 44.7533 0 38.2812 0Z" fill="white"/>
<path d="M38.2812 0H11.7188C5.24666 0 0 4.60557 0 10.2868V33.6036C0 39.2849 5.24666 43.8904 11.7188 43.8904H38.2812C44.7533 43.8904 50 39.2849 50 33.6036V10.2868C50 4.60557 44.7533 0 38.2812 0Z" fill="#0A66C2"/>
<path d="M36.0771 37.3216H41.7939C42.0011 37.3216 42.1998 37.2494 42.3463 37.1208C42.4928 36.9922 42.5751 36.8178 42.5752 36.636L42.5781 26.0334C42.5781 20.4917 41.2178 16.2321 33.8402 16.2321C31.0357 16.1405 28.391 17.4096 26.9639 19.5287C26.9569 19.5389 26.9463 19.547 26.9336 19.5515C26.921 19.556 26.907 19.5567 26.8938 19.5536C26.8807 19.5504 26.869 19.5436 26.8607 19.5341C26.8523 19.5246 26.8478 19.513 26.8477 19.5011V17.4295C26.8477 17.2476 26.7653 17.0731 26.6188 16.9445C26.4723 16.8159 26.2736 16.7437 26.0664 16.7437H20.6412C20.434 16.7437 20.2353 16.8159 20.0888 16.9445C19.9423 17.0731 19.86 17.2476 19.86 17.4295V36.635C19.86 36.8168 19.9423 36.9913 20.0888 37.1199C20.2353 37.2485 20.434 37.3207 20.6412 37.3207H26.3576C26.5648 37.3207 26.7635 37.2485 26.91 37.1199C27.0566 36.9913 27.1389 36.8168 27.1389 36.635V27.1414C27.1389 24.4571 27.7189 21.8574 31.5102 21.8574C35.2475 21.8574 35.2959 24.9291 35.2959 27.3153V36.6358C35.2959 36.8177 35.3782 36.9921 35.5247 37.1207C35.6712 37.2494 35.8699 37.3216 36.0771 37.3216ZM7.42188 10.2232C7.42188 12.2572 9.32949 13.9309 11.6469 13.9309C13.9637 13.9307 15.8701 12.256 15.8701 10.2223C15.8697 8.18863 13.9631 6.51514 11.6461 6.51514C9.32852 6.51514 7.42188 8.18915 7.42188 10.2232ZM8.78105 37.3216H14.5051C14.7123 37.3216 14.911 37.2494 15.0575 37.1207C15.204 36.9921 15.2863 36.8177 15.2863 36.6358V17.4295C15.2863 17.2476 15.204 17.0731 15.0575 16.9445C14.911 16.8159 14.7123 16.7437 14.5051 16.7437H8.78105C8.57385 16.7437 8.37514 16.8159 8.22863 16.9445C8.08211 17.0731 7.9998 17.2476 7.9998 17.4295V36.6358C7.9998 36.8177 8.08211 36.9921 8.22863 37.1207C8.37514 37.2494 8.57385 37.3216 8.78105 37.3216Z" fill="white"/>
</g>
<defs>
<clipPath id="clip0_72_997">
<rect width="50" height="43.8904" fill="white"/>
</clipPath>
</defs>
</svg>
